<svg xmlns="http://www.w3.org/2000/svg" version="1.1" xmlns:xlink="http://www.w3.org/1999/xlink" xmlns:svgjs="http://svgjs.dev/svgjs" width="1500" height="1781" viewBox="0 0 1500 1781"><g transform="matrix(1,0,0,1,-0.4589160839160513,0.7210526315789139)"><svg viewBox="0 0 208 247" data-background-color="#ffffff" preserveAspectRatio="xMidYMid meet" height="1781" width="1500" xmlns="http://www.w3.org/2000/svg" xmlns:xlink="http://www.w3.org/1999/xlink"><g id="tight-bounds" transform="matrix(1,0,0,1,0.0636363636363626,-0.09999999999999432)"><svg viewBox="0 0 207.87272727272725 247.2" height="247.2" width="207.87272727272725"><g><svg viewBox="0 0 207.87272727272725 247.2" height="247.2" width="207.87272727272725"><g><svg viewBox="0 0 207.87272727272725 247.2" height="247.2" width="207.87272727272725"><g id="textblocktransform"><svg viewBox="0 0 207.87272727272725 247.2" height="247.2" width="207.87272727272725" id="textblock"><g><svg viewBox="0 0 207.87272727272725 247.2" height="247.2" width="207.87272727272725"><g transform="matrix(1,0,0,1,0,0)"><svg width="207.87272727272725" viewBox="-0.05 -34.65 29.6 35.199999999999996" height="247.2" data-palette-color="#c56e33"><path d="M12.1 0.55L11.55 0.1Q11.65-3.65 11.68-7.43 11.7-11.2 11.7-14.95L11.7-14.95 4.25-29.7Q3.4-31.4 2.43-31.88 1.45-32.35-0.05-32.55L-0.05-32.55-0.05-33.95 0.3-34.3 7.55-34.3 14.6-18.05Q14.65-18 14.83-17.82 15-17.65 15.2-17.65L15.2-17.65Q15.35-17.65 15.9-18.43 16.45-19.2 17.2-20.43 17.95-21.65 18.7-23L18.7-23Q18.85-23.25 19.6-24.55 20.35-25.85 21.38-27.6 22.4-29.35 23.43-31.05 24.45-32.75 25.1-33.8L25.1-33.8 29.35-34.65 29.55-33.75Q26.8-30.15 24.53-27.15 22.25-24.15 20.25-21.33 18.25-18.5 16.15-15.3L16.15-15.3 16.6-0.9 12.1 0.55Z" opacity="1" transform="matrix(1,0,0,1,0,0)" fill="#c56e33" class="wordmark-text-0" data-fill-palette-color="primary" id="text-0"></path></svg></g></svg></g></svg></g></svg></g></svg></g><defs></defs></svg><rect width="207.87272727272725" height="247.2" fill="none" stroke="none" visibility="hidden"></rect></g></svg></g></svg>